<?xml version="1.0" encoding="UTF-8"?>
<svg xmlns="http://www.w3.org/2000/svg" version="1.1" width="400" height="400" viewBox="0 0 400 400"><rect x="0" y="0" width="400" height="400" fill="#ffffff"/><g transform="scale(7.547)"><g transform="translate(0,0)"><path fill-rule="evenodd" d="M11 0L11 3L10 3L10 2L9 2L9 1L8 1L8 2L9 2L9 3L8 3L8 4L9 4L9 5L8 5L8 7L9 7L9 8L6 8L6 9L5 9L5 8L0 8L0 10L1 10L1 11L2 11L2 13L1 13L1 14L2 14L2 13L4 13L4 14L5 14L5 15L7 15L7 14L6 14L6 13L10 13L10 12L12 12L12 11L14 11L14 12L13 12L13 13L12 13L12 14L15 14L15 15L18 15L18 14L21 14L21 13L19 13L19 12L18 12L18 11L20 11L20 10L19 10L19 9L20 9L20 8L19 8L19 6L20 6L20 7L21 7L21 5L23 5L23 6L22 6L22 7L23 7L23 6L24 6L24 9L21 9L21 10L24 10L24 11L23 11L23 12L24 12L24 13L22 13L22 14L25 14L25 16L24 16L24 18L25 18L25 20L24 20L24 19L22 19L22 18L23 18L23 17L22 17L22 15L21 15L21 17L18 17L18 16L17 16L17 17L18 17L18 18L17 18L17 21L15 21L15 20L16 20L16 19L14 19L14 17L13 17L13 16L14 16L14 15L13 15L13 16L12 16L12 17L10 17L10 16L9 16L9 18L8 18L8 16L5 16L5 18L6 18L6 19L4 19L4 17L3 17L3 18L2 18L2 16L4 16L4 15L2 15L2 16L0 16L0 17L1 17L1 18L2 18L2 19L0 19L0 20L1 20L1 21L0 21L0 22L1 22L1 21L2 21L2 23L1 23L1 24L0 24L0 26L1 26L1 24L2 24L2 23L3 23L3 20L4 20L4 23L5 23L5 24L3 24L3 25L2 25L2 26L3 26L3 27L2 27L2 28L1 28L1 29L0 29L0 31L2 31L2 32L0 32L0 33L3 33L3 32L4 32L4 30L6 30L6 31L5 31L5 33L4 33L4 34L1 34L1 35L5 35L5 36L6 36L6 37L5 37L5 42L4 42L4 40L2 40L2 41L3 41L3 43L2 43L2 42L1 42L1 38L2 38L2 39L4 39L4 38L2 38L2 37L1 37L1 36L0 36L0 37L1 37L1 38L0 38L0 43L1 43L1 44L3 44L3 45L4 45L4 44L3 44L3 43L8 43L8 44L6 44L6 45L8 45L8 47L9 47L9 48L8 48L8 53L9 53L9 48L11 48L11 49L10 49L10 51L11 51L11 52L10 52L10 53L15 53L15 52L16 52L16 53L18 53L18 52L16 52L16 51L15 51L15 50L16 50L16 49L15 49L15 48L16 48L16 47L18 47L18 46L17 46L17 44L18 44L18 43L20 43L20 42L19 42L19 41L20 41L20 40L19 40L19 38L18 38L18 37L19 37L19 36L20 36L20 38L23 38L23 39L24 39L24 42L25 42L25 41L27 41L27 42L28 42L28 41L29 41L29 40L31 40L31 41L30 41L30 42L29 42L29 43L30 43L30 44L27 44L27 43L25 43L25 44L24 44L24 43L23 43L23 44L24 44L24 46L23 46L23 48L24 48L24 49L23 49L23 50L24 50L24 51L22 51L22 52L21 52L21 50L22 50L22 46L20 46L20 45L19 45L19 48L20 48L20 47L21 47L21 49L18 49L18 48L17 48L17 49L18 49L18 51L19 51L19 52L20 52L20 53L22 53L22 52L23 52L23 53L24 53L24 51L25 51L25 52L26 52L26 53L28 53L28 52L29 52L29 53L30 53L30 52L32 52L32 53L33 53L33 52L32 52L32 50L33 50L33 51L34 51L34 50L35 50L35 52L36 52L36 53L37 53L37 52L38 52L38 53L40 53L40 52L38 52L38 51L39 51L39 50L41 50L41 52L43 52L43 53L44 53L44 50L43 50L43 49L42 49L42 50L41 50L41 48L44 48L44 49L47 49L47 50L48 50L48 52L47 52L47 51L46 51L46 50L45 50L45 52L47 52L47 53L51 53L51 51L52 51L52 52L53 52L53 51L52 51L52 50L50 50L50 49L52 49L52 48L53 48L53 47L52 47L52 46L51 46L51 47L52 47L52 48L49 48L49 46L50 46L50 44L51 44L51 45L53 45L53 43L51 43L51 42L52 42L52 40L53 40L53 36L52 36L52 35L53 35L53 33L52 33L52 34L50 34L50 35L49 35L49 34L48 34L48 36L50 36L50 37L48 37L48 38L47 38L47 39L46 39L46 38L45 38L45 37L44 37L44 36L46 36L46 35L47 35L47 34L46 34L46 33L45 33L45 32L49 32L49 31L50 31L50 33L51 33L51 32L53 32L53 31L51 31L51 30L49 30L49 26L50 26L50 27L51 27L51 28L50 28L50 29L51 29L51 28L52 28L52 26L53 26L53 25L51 25L51 24L53 24L53 22L51 22L51 23L49 23L49 22L50 22L50 19L51 19L51 20L52 20L52 19L51 19L51 18L50 18L50 16L51 16L51 15L50 15L50 16L49 16L49 17L48 17L48 19L47 19L47 21L46 21L46 20L45 20L45 22L47 22L47 23L48 23L48 24L44 24L44 23L41 23L41 24L42 24L42 25L40 25L40 23L39 23L39 24L38 24L38 22L35 22L35 24L33 24L33 27L37 27L37 28L38 28L38 26L39 26L39 27L40 27L40 26L42 26L42 25L43 25L43 26L44 26L44 27L41 27L41 28L39 28L39 29L40 29L40 30L41 30L41 31L40 31L40 32L38 32L38 31L37 31L37 30L36 30L36 31L35 31L35 32L34 32L34 33L33 33L33 31L34 31L34 30L35 30L35 29L36 29L36 28L35 28L35 29L34 29L34 28L32 28L32 24L31 24L31 23L32 23L32 22L33 22L33 21L34 21L34 20L32 20L32 18L31 18L31 19L28 19L28 20L26 20L26 19L27 19L27 18L29 18L29 17L30 17L30 16L32 16L32 17L33 17L33 18L35 18L35 20L36 20L36 21L39 21L39 22L41 22L41 21L42 21L42 22L44 22L44 20L43 20L43 19L45 19L45 18L43 18L43 19L39 19L39 20L36 20L36 19L37 19L37 18L35 18L35 17L36 17L36 16L38 16L38 18L40 18L40 17L41 17L41 16L38 16L38 15L39 15L39 14L41 14L41 15L42 15L42 17L46 17L46 16L43 16L43 15L45 15L45 14L46 14L46 12L45 12L45 13L44 13L44 12L43 12L43 10L44 10L44 11L47 11L47 13L48 13L48 14L47 14L47 15L49 15L49 14L50 14L50 13L48 13L48 12L49 12L49 10L50 10L50 12L52 12L52 11L51 11L51 10L50 10L50 8L49 8L49 9L48 9L48 8L47 8L47 10L45 10L45 9L46 9L46 8L44 8L44 7L45 7L45 6L44 6L44 7L43 7L43 3L44 3L44 4L45 4L45 3L44 3L44 1L43 1L43 0L40 0L40 1L41 1L41 2L43 2L43 3L37 3L37 1L35 1L35 0L33 0L33 1L34 1L34 2L32 2L32 1L30 1L30 0L29 0L29 1L30 1L30 2L29 2L29 3L31 3L31 2L32 2L32 3L33 3L33 4L32 4L32 5L29 5L29 4L26 4L26 3L28 3L28 2L27 2L27 1L28 1L28 0L27 0L27 1L25 1L25 2L24 2L24 1L23 1L23 0L18 0L18 1L17 1L17 2L19 2L19 3L20 3L20 5L19 5L19 4L18 4L18 7L17 7L17 4L14 4L14 5L12 5L12 7L11 7L11 6L10 6L10 4L11 4L11 3L12 3L12 4L13 4L13 3L12 3L12 2L14 2L14 3L16 3L16 2L14 2L14 0ZM15 0L15 1L16 1L16 0ZM19 1L19 2L20 2L20 1ZM21 1L21 3L22 3L22 4L23 4L23 3L24 3L24 4L25 4L25 3L26 3L26 2L25 2L25 3L24 3L24 2L23 2L23 1ZM38 1L38 2L39 2L39 1ZM34 2L34 4L35 4L35 5L37 5L37 7L38 7L38 8L35 8L35 7L36 7L36 6L35 6L35 7L34 7L34 6L33 6L33 5L32 5L32 6L31 6L31 8L32 8L32 11L33 11L33 14L32 14L32 13L31 13L31 12L28 12L28 11L26 11L26 10L29 10L29 9L30 9L30 8L29 8L29 9L26 9L26 10L25 10L25 11L26 11L26 13L25 13L25 14L27 14L27 12L28 12L28 15L29 15L29 16L28 16L28 17L29 17L29 16L30 16L30 14L32 14L32 16L34 16L34 17L35 17L35 16L36 16L36 15L35 15L35 14L37 14L37 15L38 15L38 14L39 14L39 13L40 13L40 11L42 11L42 9L44 9L44 8L42 8L42 6L41 6L41 5L40 5L40 4L37 4L37 3L36 3L36 4L35 4L35 2ZM15 5L15 8L16 8L16 9L13 9L13 8L14 8L14 6L13 6L13 7L12 7L12 8L11 8L11 7L10 7L10 6L9 6L9 7L10 7L10 8L9 8L9 9L11 9L11 10L10 10L10 11L11 11L11 10L12 10L12 9L13 9L13 10L14 10L14 11L15 11L15 12L16 12L16 13L15 13L15 14L16 14L16 13L17 13L17 14L18 14L18 13L17 13L17 12L16 12L16 11L15 11L15 10L16 10L16 9L18 9L18 8L17 8L17 7L16 7L16 5ZM25 5L25 8L28 8L28 5ZM26 6L26 7L27 7L27 6ZM29 6L29 7L30 7L30 6ZM32 6L32 7L33 7L33 11L34 11L34 9L35 9L35 8L34 8L34 7L33 7L33 6ZM38 6L38 7L39 7L39 8L38 8L38 9L39 9L39 10L41 10L41 9L42 9L42 8L41 8L41 6L40 6L40 7L39 7L39 6ZM40 8L40 9L41 9L41 8ZM51 8L51 9L52 9L52 10L53 10L53 9L52 9L52 8ZM2 9L2 10L4 10L4 11L5 11L5 9ZM6 9L6 10L7 10L7 11L6 11L6 12L9 12L9 10L7 10L7 9ZM35 10L35 13L36 13L36 11L38 11L38 10ZM21 11L21 12L22 12L22 11ZM4 12L4 13L5 13L5 12ZM37 12L37 13L39 13L39 12ZM41 12L41 13L42 13L42 15L43 15L43 12ZM29 13L29 14L30 14L30 13ZM51 13L51 14L52 14L52 13ZM33 14L33 15L34 15L34 14ZM19 15L19 16L20 16L20 15ZM26 15L26 16L25 16L25 17L26 17L26 18L27 18L27 17L26 17L26 16L27 16L27 15ZM52 15L52 16L53 16L53 15ZM6 17L6 18L7 18L7 17ZM15 17L15 18L16 18L16 17ZM21 17L21 18L22 18L22 17ZM9 18L9 20L8 20L8 19L6 19L6 20L7 20L7 21L6 21L6 22L5 22L5 23L6 23L6 24L7 24L7 23L6 23L6 22L7 22L7 21L9 21L9 22L8 22L8 23L9 23L9 25L10 25L10 27L9 27L9 28L10 28L10 29L11 29L11 30L10 30L10 31L11 31L11 30L12 30L12 31L14 31L14 32L12 32L12 35L11 35L11 36L10 36L10 34L11 34L11 33L10 33L10 32L8 32L8 31L9 31L9 29L6 29L6 30L7 30L7 31L6 31L6 32L8 32L8 33L9 33L9 35L6 35L6 36L7 36L7 37L6 37L6 38L7 38L7 39L6 39L6 40L9 40L9 41L8 41L8 43L9 43L9 45L11 45L11 46L12 46L12 47L11 47L11 48L12 48L12 49L14 49L14 48L15 48L15 47L14 47L14 46L12 46L12 45L11 45L11 44L13 44L13 45L15 45L15 46L16 46L16 43L13 43L13 42L16 42L16 41L18 41L18 40L17 40L17 39L18 39L18 38L17 38L17 37L18 37L18 36L19 36L19 35L20 35L20 34L19 34L19 35L18 35L18 36L17 36L17 34L18 34L18 33L21 33L21 32L22 32L22 33L23 33L23 34L21 34L21 35L22 35L22 37L24 37L24 36L25 36L25 38L26 38L26 39L25 39L25 40L26 40L26 39L27 39L27 38L28 38L28 39L29 39L29 38L30 38L30 39L31 39L31 38L32 38L32 40L35 40L35 41L34 41L34 42L32 42L32 41L31 41L31 42L30 42L30 43L31 43L31 44L30 44L30 45L32 45L32 48L29 48L29 50L27 50L27 49L26 49L26 50L25 50L25 49L24 49L24 50L25 50L25 51L26 51L26 52L27 52L27 51L29 51L29 52L30 52L30 51L31 51L31 50L32 50L32 48L36 48L36 49L35 49L35 50L36 50L36 49L38 49L38 50L37 50L37 51L38 51L38 50L39 50L39 49L40 49L40 48L41 48L41 47L44 47L44 45L43 45L43 44L41 44L41 42L39 42L39 43L38 43L38 41L39 41L39 40L41 40L41 41L42 41L42 42L43 42L43 43L44 43L44 41L42 41L42 40L41 40L41 39L43 39L43 40L46 40L46 41L45 41L45 42L46 42L46 41L47 41L47 40L46 40L46 39L44 39L44 37L43 37L43 36L42 36L42 35L46 35L46 34L44 34L44 32L45 32L45 30L46 30L46 31L48 31L48 30L47 30L47 29L44 29L44 30L43 30L43 28L41 28L41 30L42 30L42 31L41 31L41 32L42 32L42 33L41 33L41 34L38 34L38 36L36 36L36 35L34 35L34 36L33 36L33 33L32 33L32 31L33 31L33 30L34 30L34 29L33 29L33 30L31 30L31 28L30 28L30 27L31 27L31 26L30 26L30 24L29 24L29 28L30 28L30 29L27 29L27 30L26 30L26 31L24 31L24 30L25 30L25 29L23 29L23 28L24 28L24 27L23 27L23 24L24 24L24 23L25 23L25 24L27 24L27 23L29 23L29 21L31 21L31 22L32 22L32 21L31 21L31 20L28 20L28 22L27 22L27 21L26 21L26 20L25 20L25 22L21 22L21 21L20 21L20 20L19 20L19 19L20 19L20 18L19 18L19 19L18 19L18 20L19 20L19 22L20 22L20 25L19 25L19 26L20 26L20 27L18 27L18 28L16 28L16 27L15 27L15 26L16 26L16 25L18 25L18 24L17 24L17 23L18 23L18 21L17 21L17 23L15 23L15 24L16 24L16 25L12 25L12 24L14 24L14 23L13 23L13 21L14 21L14 22L15 22L15 21L14 21L14 20L12 20L12 21L11 21L11 22L10 22L10 21L9 21L9 20L11 20L11 18ZM2 19L2 20L3 20L3 19ZM21 19L21 20L22 20L22 19ZM23 20L23 21L24 21L24 20ZM40 20L40 21L41 21L41 20ZM42 20L42 21L43 21L43 20ZM47 21L47 22L48 22L48 21ZM25 22L25 23L27 23L27 22ZM11 23L11 24L10 24L10 25L11 25L11 26L12 26L12 25L11 25L11 24L12 24L12 23ZM21 23L21 25L22 25L22 23ZM35 24L35 25L34 25L34 26L38 26L38 24L37 24L37 25L36 25L36 24ZM43 24L43 25L44 25L44 24ZM49 24L49 25L50 25L50 26L51 26L51 25L50 25L50 24ZM3 25L3 26L4 26L4 25ZM5 25L5 28L8 28L8 25ZM25 25L25 28L28 28L28 25ZM45 25L45 28L48 28L48 25ZM6 26L6 27L7 27L7 26ZM26 26L26 27L27 27L27 26ZM46 26L46 27L47 27L47 26ZM10 27L10 28L11 28L11 27ZM12 27L12 28L15 28L15 27ZM21 27L21 30L23 30L23 29L22 29L22 27ZM3 28L3 29L4 29L4 28ZM18 28L18 30L16 30L16 29L15 29L15 31L18 31L18 30L19 30L19 32L20 32L20 28ZM52 29L52 30L53 30L53 29ZM26 31L26 32L25 32L25 34L24 34L24 35L23 35L23 36L24 36L24 35L25 35L25 36L27 36L27 37L29 37L29 35L30 35L30 36L31 36L31 37L32 37L32 35L31 35L31 33L30 33L30 34L28 34L28 33L29 33L29 32L31 32L31 31L29 31L29 32L28 32L28 33L27 33L27 35L25 35L25 34L26 34L26 32L27 32L27 31ZM42 31L42 32L43 32L43 31ZM17 32L17 33L18 33L18 32ZM36 32L36 33L34 33L34 34L36 34L36 33L38 33L38 32ZM6 33L6 34L7 34L7 33ZM13 33L13 34L14 34L14 33ZM15 33L15 34L16 34L16 33ZM13 35L13 36L15 36L15 37L14 37L14 38L13 38L13 37L12 37L12 39L11 39L11 40L10 40L10 38L11 38L11 37L10 37L10 38L8 38L8 37L7 37L7 38L8 38L8 39L9 39L9 40L10 40L10 41L9 41L9 43L10 43L10 44L11 44L11 41L12 41L12 42L13 42L13 41L16 41L16 40L15 40L15 39L17 39L17 38L16 38L16 37L17 37L17 36L16 36L16 35ZM27 35L27 36L28 36L28 35ZM39 35L39 36L38 36L38 37L37 37L37 38L35 38L35 37L36 37L36 36L34 36L34 37L33 37L33 38L34 38L34 39L39 39L39 38L41 38L41 37L42 37L42 36L40 36L40 35ZM39 36L39 37L38 37L38 38L39 38L39 37L40 37L40 36ZM51 36L51 37L50 37L50 40L48 40L48 42L47 42L47 44L48 44L48 43L49 43L49 44L50 44L50 42L51 42L51 41L50 41L50 40L51 40L51 39L52 39L52 38L51 38L51 37L52 37L52 36ZM13 39L13 40L14 40L14 39ZM21 39L21 40L22 40L22 39ZM27 40L27 41L28 41L28 40ZM6 41L6 42L7 42L7 41ZM21 41L21 42L22 42L22 41ZM35 41L35 42L36 42L36 43L35 43L35 44L38 44L38 45L37 45L37 46L35 46L35 47L37 47L37 48L38 48L38 46L41 46L41 44L38 44L38 43L37 43L37 42L36 42L36 41ZM49 41L49 42L50 42L50 41ZM17 42L17 43L18 43L18 42ZM31 42L31 43L32 43L32 42ZM21 43L21 45L22 45L22 43ZM45 43L45 44L46 44L46 43ZM25 45L25 48L28 48L28 45ZM42 45L42 46L43 46L43 45ZM45 45L45 48L48 48L48 45ZM9 46L9 47L10 47L10 46ZM26 46L26 47L27 47L27 46ZM29 46L29 47L31 47L31 46ZM33 46L33 47L34 47L34 46ZM46 46L46 47L47 47L47 46ZM39 47L39 48L40 48L40 47ZM12 50L12 51L13 51L13 52L14 52L14 51L13 51L13 50ZM19 50L19 51L20 51L20 50ZM26 50L26 51L27 51L27 50ZM29 50L29 51L30 51L30 50ZM49 50L49 51L50 51L50 50ZM0 0L0 7L7 7L7 0ZM1 1L1 6L6 6L6 1ZM2 2L2 5L5 5L5 2ZM46 0L46 7L53 7L53 0ZM47 1L47 6L52 6L52 1ZM48 2L48 5L51 5L51 2ZM0 46L0 53L7 53L7 46ZM1 47L1 52L6 52L6 47ZM2 48L2 51L5 51L5 48Z" fill="#000000"/></g></g></svg>
